<svg width="22" height="22" viewBox="0 0 22 22" fill="#25d366" xmlns="http://www.w3.org/2000/svg">
<path d="M10.9992 2.19922C6.13942 2.19922 2.19922 6.13942 2.19922 10.9992C2.19922 12.6501 2.66294 14.1893 3.45391 15.5095L2.27799 19.7992L6.65938 18.6491C7.94075 19.3776 9.41998 19.7992 10.9992 19.7992C15.859 19.7992 19.7992 15.859 19.7992 10.9992C19.7992 6.13942 15.859 2.19922 10.9992 2.19922ZM7.98711 6.89427C8.13011 6.89427 8.27704 6.8934 8.40391 6.9C8.56084 6.90367 8.73165 6.91516 8.89518 7.27669C9.08952 7.70643 9.51266 8.78448 9.56693 8.89375C9.62119 9.00302 9.65965 9.13174 9.58411 9.27474C9.51225 9.42141 9.47487 9.51017 9.36927 9.63997C9.26 9.76611 9.14028 9.92277 9.04128 10.0181C8.93201 10.1274 8.81918 10.2472 8.94531 10.465C9.07145 10.6828 9.5095 11.3968 10.157 11.9732C10.9894 12.7168 11.6916 12.9453 11.9102 13.0546C12.1287 13.1638 12.2552 13.1468 12.3814 13.0001C12.5112 12.8571 12.9265 12.3665 13.0732 12.1479C13.2162 11.9294 13.3622 11.9672 13.5602 12.0391C13.7611 12.1109 14.8326 12.6388 15.0512 12.748C15.2697 12.8573 15.413 12.9114 15.468 13.0001C15.5244 13.0918 15.5245 13.5282 15.3434 14.0371C15.1622 14.5453 14.2728 15.0368 13.8738 15.0712C13.4712 15.1086 13.0955 15.2522 11.257 14.5284C9.03943 13.655 7.64091 11.3836 7.53164 11.237C7.42237 11.094 6.64362 10.0561 6.64362 8.98542C6.64362 7.91108 7.2069 7.38494 7.40417 7.16641C7.6051 6.94787 7.84044 6.89427 7.98711 6.89427Z" fill="#25d366"/>
</svg>
